<svg xmlns="http://www.w3.org/2000/svg" viewBox="0 0 512 512" role="img" aria-labelledby="title desc">
  <title id="title">Nutria cósmica de CHONGSEB</title>
  <desc id="desc">Una nutria astronauta sostiene un cogollo verde neón frente a un portal espacial.</desc>
  <defs>
    <radialGradient id="space" cx="35%" cy="28%" r="80%">
      <stop offset="0" stop-color="#5028a8"/>
      <stop offset=".55" stop-color="#17104c"/>
      <stop offset="1" stop-color="#08091a"/>
    </radialGradient>
    <linearGradient id="suit" x1="0" y1="0" x2="1" y2="1">
      <stop stop-color="#f8fbff"/>
      <stop offset="1" stop-color="#8adfff"/>
    </linearGradient>
    <filter id="greenGlow" x="-60%" y="-60%" width="220%" height="220%">
      <feGaussianBlur stdDeviation="9" result="blur"/>
      <feMerge><feMergeNode in="blur"/><feMergeNode in="SourceGraphic"/></feMerge>
    </filter>
  </defs>
  <circle cx="256" cy="256" r="250" fill="url(#space)"/>
  <circle cx="256" cy="256" r="224" fill="none" stroke="#ff28db" stroke-width="10"/>
  <g fill="#fff6c7">
    <circle cx="105" cy="122" r="7"/><circle cx="405" cy="146" r="5"/>
    <circle cx="91" cy="350" r="5"/><circle cx="410" cy="350" r="8"/>
  </g>
  <ellipse cx="252" cy="336" rx="114" ry="118" fill="url(#suit)" stroke="#10152f" stroke-width="14"/>
  <rect x="188" y="328" width="128" height="72" rx="20" fill="#202860" stroke="#28c9ff" stroke-width="8"/>
  <circle cx="256" cy="215" r="119" fill="#b8eeff" opacity=".33" stroke="#f8fdff" stroke-width="13"/>
  <circle cx="256" cy="222" r="88" fill="#8a5435" stroke="#271814" stroke-width="12"/>
  <circle cx="194" cy="165" r="34" fill="#744126" stroke="#271814" stroke-width="11"/>
  <circle cx="318" cy="165" r="34" fill="#744126" stroke="#271814" stroke-width="11"/>
  <ellipse cx="256" cy="243" rx="61" ry="48" fill="#d89361"/>
  <circle cx="224" cy="210" r="10" fill="#0b0c10"/><circle cx="288" cy="210" r="10" fill="#0b0c10"/>
  <ellipse cx="256" cy="235" rx="16" ry="12" fill="#171018"/>
  <path d="M256 247c-13 15-30 16-43 8m43-8c13 15 30 16 43 8" fill="none" stroke="#271814" stroke-width="7" stroke-linecap="round"/>
  <path d="M340 335c38 4 57 30 53 61" fill="none" stroke="#8a5435" stroke-width="30" stroke-linecap="round"/>
  <g transform="translate(375 378)" filter="url(#greenGlow)" fill="#55ff88" stroke="#063f24" stroke-width="5" stroke-linejoin="round">
    <path d="M0 48C-20 30-26 9-12-8 3 1 10 13 10 28 16 9 28-3 44-6 49 13 40 31 20 46 29 32 43 27 57 31 54 48 37 56 12 56Z"/>
    <path d="M10 49v27" fill="none"/>
  </g>
</svg>
